<?xml version="1.0" standalone="no"?>
<!DOCTYPE svg PUBLIC "-//W3C//DTD SVG 20010904//EN"
 "http://www.w3.org/TR/2001/REC-SVG-20010904/DTD/svg10.dtd">
<svg version="1.0" xmlns="http://www.w3.org/2000/svg"
 width="900.000000pt" height="1350.000000pt" viewBox="0 0 900.000000 1350.000000"
 preserveAspectRatio="xMidYMid meet">
<metadata>
Created by potrace 1.10, written by Peter Selinger 2001-2011
</metadata>
<g transform="translate(0.000000,1350.000000) scale(0.100000,-0.100000)"
fill="#000000" stroke="none">
<path d="M4433 11543 c-31 -6 -84 -64 -104 -114 -11 -26 -18 -71 -18 -112 -1
-64 -2 -68 -28 -78 -79 -30 -93 -140 -28 -224 19 -26 25 -46 25 -84 0 -47 -2
-51 -42 -78 -36 -24 -44 -36 -52 -76 l-9 -47 -176 0 c-173 0 -230 -6 -421 -47
-167 -35 -417 -110 -493 -149 -16 -8 -35 -14 -42 -14 -7 0 -26 -6 -42 -14 -15
-8 -48 -22 -73 -31 -25 -9 -54 -22 -64 -27 -11 -6 -31 -14 -45 -18 -14 -5 -51
-18 -81 -30 -30 -11 -84 -30 -120 -41 -36 -12 -80 -27 -98 -35 -18 -8 -40 -14
-50 -14 -9 0 -37 -6 -62 -14 -58 -18 -172 -44 -232 -52 -41 -5 -49 -4 -54 12
-12 33 -75 104 -107 121 -58 31 -108 40 -158 27 -64 -16 -95 -39 -119 -90 -49
-100 -31 -195 48 -264 26 -22 55 -40 65 -40 27 0 32 -27 12 -68 -10 -20 -24
-50 -31 -67 -6 -16 -20 -48 -30 -70 -9 -22 -23 -53 -30 -70 -7 -16 -24 -55
-37 -85 -14 -30 -35 -80 -47 -110 -27 -68 -42 -104 -63 -152 -9 -21 -23 -53
-31 -70 -8 -18 -21 -49 -29 -68 -9 -19 -32 -75 -52 -125 -21 -49 -41 -94 -46
-99 -5 -6 -9 -16 -9 -23 0 -7 -14 -44 -31 -81 -17 -37 -38 -83 -46 -102 -32
-75 -44 -101 -60 -137 -9 -21 -22 -51 -29 -68 -7 -16 -27 -60 -43 -98 -17 -37
-31 -71 -31 -76 0 -5 -6 -22 -14 -38 -26 -51 -43 -92 -136 -318 -34 -82 -76
-184 -94 -225 l-32 -75 -74 -5 -75 -5 2 -48 c3 -54 52 -180 95 -245 15 -24 28
-45 28 -48 0 -15 97 -128 171 -200 170 -165 368 -266 641 -329 93 -21 384 -21
482 1 234 51 384 120 567 260 81 63 220 214 243 264 3 8 15 29 25 45 40 61 91
176 91 204 0 11 5 31 11 45 19 40 -2 56 -71 56 -42 0 -61 5 -73 18 -10 10 -17
22 -17 25 0 8 -52 125 -75 170 -8 16 -15 33 -15 38 0 9 -29 75 -91 206 -16 35
-29 65 -29 68 0 3 -14 35 -31 72 -38 86 -55 125 -73 166 -21 47 -41 94 -75
170 -17 37 -31 69 -31 72 0 3 -14 35 -31 72 -40 90 -56 126 -74 168 -8 19 -22
51 -30 70 -8 19 -23 52 -32 73 -9 20 -22 51 -29 67 -6 17 -19 46 -27 65 -8 19
-22 51 -30 70 -21 48 -41 93 -76 173 -17 37 -31 73 -31 80 0 7 -4 17 -9 23
-14 15 -141 316 -141 335 0 21 20 29 68 29 34 0 161 18 297 42 33 5 89 14 125
18 36 5 78 13 93 19 16 6 45 11 66 11 21 0 58 7 81 15 23 8 56 15 73 15 17 0
56 6 86 14 31 8 97 21 146 30 50 8 117 20 150 26 237 41 492 51 625 25 117
-22 262 -83 284 -117 6 -10 1 -32 -18 -71 -47 -100 -29 -184 54 -242 42 -30
45 -34 43 -76 -14 -376 -24 -598 -32 -704 -6 -71 -11 -197 -11 -280 0 -82 -5
-177 -10 -210 -5 -33 -15 -188 -20 -344 -6 -156 -12 -287 -14 -290 -3 -4 -7
-78 -10 -166 -3 -88 -11 -261 -18 -385 l-11 -225 -38 -42 c-35 -38 -39 -48
-39 -96 0 -74 13 -106 60 -146 33 -27 40 -40 40 -69 0 -55 -36 -107 -122 -176
-57 -46 -78 -83 -87 -155 l-6 -54 -70 -18 c-38 -9 -83 -24 -100 -32 -48 -25
-111 -97 -147 -167 l-34 -65 -86 -6 c-94 -6 -107 -12 -139 -68 -12 -20 -36
-48 -52 -62 -29 -25 -31 -31 -34 -115 -2 -49 0 -95 5 -102 12 -17 2448 -18
2469 -1 18 16 17 146 -2 192 -8 20 -23 41 -34 46 -10 6 -30 30 -44 54 -30 51
-70 67 -165 67 l-61 0 -31 63 c-29 58 -113 157 -134 157 -5 0 -17 6 -25 13
-18 15 -104 45 -141 49 -23 3 -25 8 -30 63 -6 72 -33 115 -97 155 -71 45 -113
112 -113 179 0 35 4 43 30 56 50 26 66 64 62 150 -1 18 -15 45 -35 68 l-34 37
-11 223 c-7 122 -14 300 -17 396 -3 96 -8 177 -10 181 -3 4 -9 171 -15 371 -6
200 -15 393 -20 429 -5 36 -10 135 -10 220 0 85 -7 270 -15 410 -8 140 -15
298 -15 351 l0 96 39 34 c21 19 46 48 55 66 23 46 20 119 -8 176 l-23 48 26
27 c25 27 74 53 151 81 123 45 352 56 580 27 130 -16 161 -21 295 -47 33 -6
83 -15 110 -19 75 -12 164 -30 221 -46 28 -8 63 -14 78 -14 15 0 55 -6 89 -14
34 -8 107 -22 162 -31 55 -9 125 -20 155 -25 30 -5 84 -12 120 -15 119 -11
126 -17 96 -73 -7 -15 -22 -45 -31 -67 -10 -22 -24 -53 -31 -68 -8 -16 -14
-33 -14 -38 0 -5 -14 -39 -31 -76 -70 -156 -78 -176 -149 -348 -34 -82 -65
-157 -70 -166 -4 -8 -54 -123 -110 -254 -56 -131 -106 -246 -110 -254 -4 -9
-14 -32 -22 -51 -9 -19 -23 -53 -33 -75 -10 -22 -24 -53 -31 -70 -6 -16 -20
-48 -30 -70 -9 -22 -23 -55 -31 -72 -7 -18 -19 -48 -26 -65 -8 -18 -21 -50
-30 -70 -9 -21 -25 -55 -34 -75 -9 -21 -22 -51 -29 -68 -7 -16 -24 -55 -37
-85 -14 -30 -35 -80 -47 -110 -13 -30 -30 -61 -38 -67 -9 -8 -44 -13 -84 -13
-67 0 -68 0 -68 -27 0 -84 89 -267 200 -414 44 -58 191 -191 256 -232 28 -18
59 -37 70 -44 89 -57 280 -127 424 -158 102 -21 379 -21 475 1 129 28 281 77
299 95 6 5 16 9 23 9 20 0 156 83 242 149 110 84 223 217 289 341 37 68 82
192 84 231 l3 44 -73 5 c-87 6 -76 -9 -172 225 -34 83 -68 164 -75 180 -7 17
-20 46 -28 65 -8 19 -23 53 -32 75 -10 22 -24 56 -33 75 -8 19 -21 47 -28 62
-8 14 -14 31 -14 37 0 6 -14 41 -31 78 -41 92 -59 132 -73 168 -7 17 -21 48
-30 70 -10 22 -24 54 -30 70 -7 17 -20 46 -28 65 -9 19 -26 60 -38 90 -12 30
-32 78 -45 105 -12 28 -44 102 -70 165 -26 63 -58 138 -70 165 -13 28 -33 75
-45 105 -12 30 -28 70 -36 88 -8 17 -21 49 -30 70 -9 20 -23 53 -31 72 -8 19
-22 51 -30 70 -8 19 -21 48 -29 63 -22 44 -18 53 31 77 93 45 138 145 111 247
-22 83 -51 113 -130 137 -85 26 -185 -20 -246 -112 l-35 -53 -55 6 c-30 4 -77
13 -105 20 -99 26 -141 36 -180 44 -22 4 -51 13 -65 19 -14 5 -54 19 -90 31
-36 11 -90 30 -120 41 -30 12 -67 25 -81 30 -14 4 -34 12 -45 18 -19 10 -141
60 -219 89 -22 8 -52 21 -67 29 -14 8 -33 14 -42 14 -8 0 -30 6 -48 14 -18 8
-62 22 -98 31 -36 10 -85 23 -110 30 -43 12 -127 30 -255 56 -33 7 -152 15
-265 18 l-205 6 -3 32 c-2 21 -16 45 -41 70 l-38 38 6 77 c4 46 13 84 22 95
21 25 39 70 39 96 -1 32 -25 59 -73 82 l-42 20 -6 75 c-8 95 -22 138 -58 178
-39 44 -95 59 -168 45z m132 -442 c78 -10 66 -31 -30 -52 -99 -22 -146 -23
-190 -5 -27 11 -35 21 -35 40 0 13 6 26 13 29 14 5 169 -2 242 -12z m-56 -386
c91 -8 113 -14 109 -27 -5 -13 -161 -47 -216 -48 -42 0 -100 24 -109 46 -15
40 31 46 216 29z m151 -569 c-5 -5 -12 -7 -16 -3 -3 3 -2 102 2 219 l8 213 8
-210 c5 -134 4 -213 -2 -219z m-307 397 c4 -2 7 -101 7 -219 0 -194 -2 -214
-17 -214 -9 0 -27 10 -40 22 -23 21 -23 26 -23 218 0 108 3 200 6 203 7 6 49
0 67 -10z m1052 -149 c22 -1 49 -3 60 -4 13 0 16 -3 8 -8 -7 -4 -83 -9 -170
-10 -208 -3 -289 -19 -420 -85 -48 -24 -53 -24 -53 -8 0 23 60 65 131 93 87
34 226 41 444 22z m-1416 -11 c58 -17 161 -78 161 -94 0 -14 -35 -11 -67 5
-100 50 -188 69 -353 73 -80 2 -156 6 -170 10 -57 13 19 22 194 22 141 1 191
-3 235 -16z m675 -443 c6 -6 2 -12 -10 -16 -10 -3 -36 -13 -57 -22 -29 -12
-74 -16 -177 -16 -125 -1 -141 1 -166 20 -34 25 -40 41 -18 46 37 7 419 -4
428 -12z m-2634 -149 c0 -10 7 -24 15 -31 8 -7 15 -19 15 -27 0 -8 6 -27 14
-41 11 -20 409 -954 518 -1212 5 -14 16 -40 24 -57 35 -81 45 -105 58 -135 7
-18 21 -51 31 -73 10 -22 24 -53 31 -70 6 -16 21 -51 33 -76 12 -25 21 -49 21
-53 0 -7 29 -74 65 -151 14 -30 18 -49 16 -72 -1 -10 -93 -13 -425 -13 -234 0
-427 4 -430 8 -4 6 -11 1992 -7 2025 2 16 21 -5 21 -22z m4937 -1994 c-7 -16
-35 -17 -430 -15 -402 3 -422 4 -425 22 -2 10 3 33 12 52 18 36 34 74 61 139
9 22 23 55 31 73 8 17 21 48 29 67 8 19 21 50 29 68 19 44 42 97 54 127 31 73
55 128 68 158 26 59 113 267 138 332 3 8 10 22 15 30 5 8 37 83 72 165 34 83
75 178 90 213 16 34 29 66 29 71 0 5 6 22 14 38 26 51 50 108 121 283 26 63
51 122 56 130 5 8 15 26 22 40 10 20 13 -167 17 -975 3 -550 1 -1008 -3 -1018z
m129 1946 c4 -16 12 -39 19 -53 7 -14 19 -42 28 -63 9 -20 24 -54 33 -75 9
-20 22 -50 29 -67 23 -56 47 -110 61 -138 8 -16 14 -33 14 -38 0 -5 14 -39 31
-76 16 -38 36 -81 43 -98 7 -16 20 -47 29 -68 9 -20 23 -53 31 -72 9 -20 22
-50 30 -68 7 -17 31 -72 51 -122 21 -49 48 -115 62 -145 27 -61 45 -103 67
-155 9 -20 22 -51 30 -70 9 -20 22 -51 31 -70 38 -87 48 -112 60 -140 12 -31
22 -53 74 -168 17 -37 31 -72 31 -78 0 -6 6 -23 14 -37 38 -75 66 -144 61
-152 -4 -6 -164 -10 -424 -10 -329 0 -421 3 -429 13 -12 14 -18 1958 -6 1970
14 14 24 7 30 -20z m-5183 -15 c3 -13 6 -450 7 -971 1 -718 -2 -952 -11 -963
-17 -20 -834 -21 -842 -1 -4 11 123 322 229 564 8 18 21 47 29 65 8 18 28 63
44 101 17 37 31 71 31 76 0 5 7 22 15 38 19 37 58 125 85 193 23 59 40 98 66
158 9 20 24 53 32 72 8 19 21 47 29 62 7 14 13 31 13 37 0 6 14 42 31 79 17
37 37 81 44 97 7 17 19 46 28 65 15 36 35 81 63 148 9 20 22 50 30 65 8 16 14
32 14 37 0 16 41 100 49 100 5 0 11 -10 14 -22z m2447 -394 c-6 -203 -16 -711
-22 -1129 -12 -956 -17 -1079 -40 -1083 -9 -2 -24 8 -33 22 -16 24 -16 63 -1
583 9 307 21 655 26 773 6 118 15 390 20 603 6 213 15 411 20 439 6 28 10 76
10 108 0 58 7 77 23 61 5 -5 4 -159 -3 -377z m280 -244 c0 -316 5 -606 10
-645 5 -38 12 -341 16 -672 7 -559 6 -603 -9 -603 -16 0 -17 36 -17 433 0 237
-5 461 -10 497 -12 79 -26 1524 -16 1565 20 81 26 -38 26 -575z m-139 -684 c6
-686 8 -1254 5 -1262 -11 -28 -43 -15 -61 26 -16 36 -17 60 -11 237 3 109 10
658 15 1220 5 561 12 1026 16 1033 4 7 11 8 16 3 5 -5 14 -570 20 -1257z
m-3371 -776 c48 -13 692 -50 871 -50 175 0 392 -11 383 -19 -6 -6 -76 -14
-284 -32 -260 -21 -864 7 -970 45 -101 37 -101 84 0 56z m5033 0 c62 -15 708
-50 919 -50 196 0 372 -9 362 -19 -7 -7 -92 -17 -279 -32 -254 -20 -865 3
-985 38 -52 15 -100 46 -100 65 0 11 32 10 83 -2z m-4775 -182 c6 -6 12 -18
12 -28 0 -10 7 -23 15 -30 8 -7 15 -19 15 -26 0 -8 33 -48 74 -89 40 -42 70
-78 66 -80 -12 -7 -146 55 -215 100 -77 49 -165 133 -165 157 0 18 5 19 93 13
50 -4 98 -12 105 -17z m5022 6 c8 -2 26 -27 39 -56 31 -67 70 -116 126 -158
85 -63 42 -68 -79 -10 -138 67 -276 181 -276 228 0 12 15 13 88 8 48 -4 94 -9
102 -12z m1460 2 c0 -17 -53 -97 -94 -142 -79 -88 -282 -196 -260 -139 4 8 10
15 16 15 11 0 88 58 138 104 150 138 183 166 191 166 5 0 9 -2 9 -4z m-5060
-32 c0 -24 -86 -130 -139 -172 -41 -32 -70 -49 -183 -104 -10 -4 -28 -8 -40
-7 -23 0 -23 1 2 12 14 7 32 19 42 27 9 8 23 20 30 25 75 57 114 91 183 157
80 77 105 92 105 62z m1754 -433 c148 -25 60 -43 -216 -45 -153 -1 -179 1
-194 16 -10 9 -14 23 -10 33 5 15 24 16 184 12 97 -3 203 -10 236 -16z m14
-512 c155 -26 116 -35 -194 -44 -263 -7 -294 -4 -294 34 0 10 3 21 8 26 10 11
397 -2 480 -16z m167 -278 c3 -6 -2 -14 -12 -19 -28 -14 -319 -27 -622 -27
-252 0 -275 1 -285 18 -8 14 -8 20 4 27 20 13 907 13 915 1z m-206 -222 c242
0 329 -3 311 -11 -14 -5 -34 -15 -45 -22 -25 -14 -501 -22 -1013 -17 -393 4
-395 4 -378 48 6 15 39 16 398 10 215 -4 542 -7 727 -8z"/>
<path d="M1874 5622 c-13 -8 -43 -64 -54 -101 -5 -14 -18 -51 -30 -81 -12 -30
-25 -66 -30 -80 -5 -14 -18 -50 -30 -80 -11 -30 -33 -89 -47 -130 -14 -41 -29
-79 -33 -85 -4 -5 -10 -21 -13 -35 -3 -14 -15 -50 -27 -80 -12 -30 -25 -68
-30 -85 -7 -28 -19 -59 -41 -110 -5 -11 -13 -33 -19 -50 -5 -16 -25 -75 -45
-130 -20 -55 -40 -113 -45 -130 -4 -16 -18 -55 -30 -85 -12 -30 -25 -68 -30
-85 -5 -16 -18 -55 -30 -85 -34 -88 -40 -110 -31 -133 10 -27 7 -25 276 -137
83 -35 178 -76 213 -91 34 -16 66 -29 71 -29 5 0 22 -6 38 -14 26 -13 50 -24
138 -62 19 -8 52 -22 72 -31 21 -9 54 -23 73 -31 19 -8 47 -21 62 -29 14 -7
40 -13 57 -13 27 0 36 7 59 45 15 24 32 45 39 45 7 0 46 -16 88 -36 51 -24 84
-34 100 -30 26 7 65 62 65 93 0 10 4 23 10 29 5 5 13 27 18 49 11 55 36 56
112 8 33 -21 68 -43 78 -48 45 -27 163 -108 168 -116 3 -5 -6 -34 -20 -64 -69
-145 0 -307 145 -339 49 -11 54 -15 62 -47 27 -109 87 -164 197 -178 41 -5 47
-10 65 -48 47 -97 117 -136 235 -131 l75 3 17 -33 c24 -49 83 -97 143 -117 50
-18 54 -17 106 1 30 10 72 31 93 47 l40 27 30 -28 c60 -56 76 -62 159 -62 82
0 104 8 160 59 26 24 36 26 120 26 l92 0 55 42 c30 23 64 56 75 73 16 25 25
30 45 25 14 -4 59 -9 100 -11 70 -4 78 -3 123 26 26 17 62 51 80 76 32 45 32
45 78 39 25 -4 65 -2 87 4 54 15 126 83 160 151 27 54 28 55 77 60 64 7 104
29 150 82 56 66 75 115 75 200 l0 73 68 45 c37 25 72 47 77 49 6 2 26 17 46
32 20 16 39 29 42 29 3 0 26 14 50 30 25 17 49 30 55 30 5 0 15 7 22 15 17 20
49 19 56 -2 3 -10 12 -30 20 -45 8 -14 14 -33 14 -41 0 -28 41 -107 61 -117
16 -9 35 -3 103 29 46 23 90 41 98 41 9 0 21 -14 28 -31 28 -67 62 -74 156
-33 120 52 150 65 177 79 16 8 33 15 38 15 5 0 39 14 76 31 74 33 99 44 236
103 17 8 57 25 87 39 30 14 80 35 110 47 151 61 171 72 181 98 6 15 4 36 -7
65 -8 23 -19 56 -24 72 -4 17 -18 55 -30 85 -12 30 -25 69 -30 85 -5 17 -18
55 -30 85 -11 30 -32 87 -45 125 -42 124 -55 160 -64 180 -5 11 -12 29 -14 40
-3 11 -15 45 -27 75 -12 30 -25 70 -30 89 -5 18 -13 38 -19 44 -6 6 -11 20
-11 32 0 12 -4 25 -9 31 -4 5 -21 45 -36 89 -50 143 -56 160 -66 169 -5 6 -9
18 -9 28 0 9 -7 34 -16 55 -29 68 -41 97 -60 143 -33 82 -44 87 -140 53 -38
-13 -81 -28 -95 -32 -14 -5 -34 -13 -45 -19 -10 -5 -39 -18 -64 -27 -25 -10
-58 -23 -75 -30 -16 -8 -66 -28 -110 -45 -44 -17 -93 -38 -110 -45 -16 -7 -66
-27 -110 -45 -44 -18 -102 -43 -130 -55 -27 -13 -75 -33 -105 -45 -30 -12 -70
-29 -87 -36 -18 -8 -47 -21 -65 -29 -151 -65 -168 -76 -168 -110 0 -12 -8 -29
-17 -37 -42 -36 -204 -50 -293 -24 -49 14 -65 21 -265 111 -78 36 -147 66
-230 100 -49 20 -103 43 -120 50 -16 7 -50 21 -75 30 -25 9 -60 23 -78 31 -44
19 -103 18 -149 -3 -44 -19 -157 -70 -190 -86 -16 -7 -39 -7 -79 2 -32 6 -73
11 -93 11 -50 0 -230 -43 -301 -72 -14 -6 -38 -14 -55 -18 -16 -5 -55 -18 -85
-30 -30 -12 -68 -25 -85 -30 -16 -5 -82 -27 -145 -49 -108 -38 -122 -41 -225
-41 -127 0 -181 18 -228 75 -15 19 -42 39 -60 44 -61 19 -102 36 -142 60 -54
33 -90 50 -225 106 -63 26 -128 53 -145 60 -59 25 -81 34 -135 55 -163 64
-240 96 -300 122 -19 9 -55 23 -80 33 -25 9 -57 23 -72 31 -28 15 -76 18 -94
6z m2863 -403 c15 -7 42 -17 58 -24 17 -7 50 -21 75 -30 52 -20 117 -48 215
-90 78 -35 111 -49 140 -61 17 -7 53 -22 80 -35 220 -97 238 -102 353 -96 93
5 166 18 206 39 15 8 23 5 38 -13 10 -13 21 -35 24 -49 3 -14 12 -43 21 -65 8
-22 22 -58 30 -80 8 -22 21 -55 29 -73 8 -18 14 -41 14 -50 0 -10 6 -26 14
-37 7 -11 16 -31 19 -45 3 -14 15 -50 27 -80 12 -30 24 -66 27 -80 3 -14 10
-30 15 -37 6 -7 14 -27 18 -45 5 -18 25 -78 45 -133 50 -136 51 -143 29 -152
-26 -9 -161 -91 -204 -122 -19 -14 -43 -30 -52 -36 -9 -5 -50 -33 -91 -61
l-75 -51 -54 46 c-30 25 -75 63 -100 85 -113 94 -122 106 -74 106 27 0 139 35
165 52 35 22 25 38 -22 38 -60 0 -199 32 -278 64 -36 14 -68 26 -72 26 -13 0
-147 97 -218 159 -41 36 -149 134 -239 216 -89 83 -178 163 -197 179 -30 25
-34 33 -29 60 13 64 12 71 -12 74 -13 2 -44 -4 -70 -13 -26 -9 -94 -19 -152
-22 -95 -5 -108 -8 -132 -31 -16 -14 -28 -31 -28 -38 0 -7 -3 -14 -7 -16 -5
-1 -21 -23 -38 -46 -45 -67 -136 -157 -191 -189 -83 -50 -185 -53 -206 -8 -9
21 7 71 42 125 5 8 53 88 105 177 63 107 110 174 137 197 34 29 153 94 251
136 12 6 29 14 37 19 20 12 219 103 250 114 25 9 48 8 77 -4z m-1808 -151 c25
-12 48 -23 50 -25 4 -2 -27 -83 -65 -171 -8 -18 -14 -39 -14 -47 0 -7 -6 -26
-14 -42 -15 -30 -32 -78 -46 -128 -5 -16 -25 -75 -45 -130 -20 -55 -40 -113
-45 -130 -4 -16 -18 -55 -30 -85 -12 -30 -24 -64 -27 -75 -2 -11 -9 -29 -14
-40 -11 -26 -39 -105 -45 -130 -3 -11 -10 -29 -15 -40 -4 -11 -22 -60 -39
-110 -17 -49 -34 -93 -39 -98 -12 -12 -89 22 -96 43 -5 17 3 48 35 130 12 30
26 69 30 85 8 27 54 156 96 270 9 22 19 54 23 70 4 17 12 39 18 50 12 23 31
77 43 120 9 32 28 88 41 120 10 24 27 73 79 227 36 107 58 158 69 158 3 0 25
-10 50 -22z m1131 15 c0 -5 -16 -21 -36 -36 -19 -16 -39 -39 -45 -50 -5 -12
-13 -29 -19 -37 -16 -25 -186 -314 -193 -330 -4 -8 -11 -22 -16 -30 -33 -58
-41 -84 -41 -133 0 -47 5 -62 33 -99 54 -70 138 -93 242 -64 133 37 238 120
350 279 38 54 42 57 83 57 23 0 59 7 79 15 33 14 38 14 57 -2 25 -21 115 -104
247 -228 190 -179 215 -201 294 -269 44 -38 82 -72 85 -75 4 -6 67 -61 324
-282 22 -19 85 -75 140 -125 95 -86 101 -93 104 -134 4 -52 -19 -101 -65 -136
-38 -28 -64 -30 -101 -7 -21 14 -259 221 -318 277 -41 39 -198 180 -239 216
-27 23 -75 66 -106 96 -70 67 -101 80 -134 58 -30 -19 -33 -56 -7 -88 9 -12
157 -148 327 -301 345 -312 353 -319 361 -351 14 -55 -57 -133 -121 -134 -46
0 -73 16 -147 86 -29 28 -75 70 -103 94 -48 41 -210 188 -244 220 -9 9 -52 47
-96 85 -44 39 -98 87 -120 107 -52 49 -97 52 -119 10 -13 -26 -13 -32 3 -58
10 -16 51 -58 92 -93 41 -36 79 -70 84 -76 6 -6 75 -69 155 -140 80 -71 150
-134 156 -140 6 -5 41 -37 77 -70 71 -63 80 -84 49 -120 -69 -82 -141 -72
-267 39 -38 33 -72 63 -75 66 -3 3 -57 50 -120 105 -63 55 -133 116 -155 137
-112 103 -141 115 -182 76 -29 -28 -29 -39 4 -78 l26 -32 -49 7 c-61 9 -66 13
-83 69 -25 87 -98 136 -203 136 -37 0 -50 5 -62 22 -9 12 -16 30 -16 40 0 23
-88 98 -136 114 -51 18 -103 18 -147 -1 -20 -8 -39 -15 -42 -15 -2 0 -15 17
-29 38 -53 83 -114 122 -192 122 -62 0 -112 -29 -186 -105 -34 -36 -66 -65
-72 -65 -6 0 -38 19 -71 42 -33 23 -109 75 -170 114 -60 40 -118 79 -129 86
-18 13 -17 16 9 98 15 47 32 96 37 110 6 14 14 39 18 55 5 17 18 55 30 85 12
30 25 69 30 85 4 17 12 41 17 55 15 38 34 92 43 125 5 17 25 75 45 130 20 55
40 111 45 125 13 39 40 100 44 100 2 0 26 -11 53 -24 71 -35 177 -50 261 -37
37 6 81 13 97 15 17 2 95 27 175 55 80 28 178 62 218 76 40 13 80 29 90 34 20
12 72 14 72 4z m2046 -10 c3 -10 10 -27 16 -37 6 -11 14 -31 18 -45 5 -14 18
-51 30 -81 11 -30 32 -86 45 -125 13 -38 33 -95 45 -125 11 -30 28 -73 36 -95
9 -22 18 -51 21 -65 3 -14 12 -34 19 -45 8 -11 14 -29 14 -40 0 -11 6 -29 14
-40 7 -11 16 -31 19 -45 3 -14 15 -50 27 -80 12 -30 26 -71 32 -90 5 -19 14
-39 19 -45 5 -5 9 -15 9 -23 0 -8 6 -28 14 -45 8 -18 16 -41 19 -52 3 -11 15
-44 26 -74 23 -62 21 -69 -40 -99 l-40 -20 -13 27 c-7 14 -19 44 -26 66 -7 22
-16 45 -20 50 -4 6 -10 21 -13 35 -3 14 -15 50 -27 80 -12 30 -25 70 -30 88
-4 18 -12 38 -18 45 -5 7 -12 23 -15 37 -3 14 -15 50 -26 80 -12 30 -33 87
-46 125 -42 124 -55 160 -64 180 -5 11 -12 29 -14 40 -3 11 -15 45 -27 75 -12
30 -24 64 -27 75 -3 11 -11 34 -18 50 -47 107 -77 186 -72 192 40 40 104 54
113 26z m-3838 -980 c56 -64 36 -146 -45 -180 -70 -29 -163 32 -163 108 0 36
40 95 74 110 42 17 99 2 134 -38z m1196 -327 c20 -18 36 -43 36 -55 0 -44 -51
-118 -152 -224 -94 -98 -106 -107 -140 -107 -28 0 -42 7 -62 31 -61 72 -39
123 117 277 129 127 144 133 201 78z m326 -111 c15 -8 38 -30 50 -50 21 -35
21 -36 3 -64 -10 -16 -59 -73 -110 -128 -50 -54 -104 -114 -120 -134 -81 -102
-141 -138 -197 -118 -61 22 -83 91 -48 152 18 32 264 283 323 330 39 31 58 33
99 12z m300 -195 c40 -40 35 -98 -13 -151 -32 -34 -225 -247 -256 -282 -50
-56 -100 -69 -164 -42 -38 15 -47 31 -47 76 0 22 20 51 87 127 49 53 104 115
123 137 78 88 130 135 162 144 53 15 87 12 108 -9z m436 -215 c89 -80 194
-174 210 -190 6 -5 23 -20 38 -32 14 -13 26 -30 26 -39 0 -22 -68 -84 -94 -86
-38 -2 -71 3 -86 16 -8 6 -32 21 -53 31 -21 11 -58 38 -83 60 l-44 40 16 45
c18 51 13 133 -11 180 -17 33 -19 53 -6 48 5 -1 44 -34 87 -73z m-215 -4 c24
-25 29 -38 29 -78 l0 -49 -137 -142 c-129 -133 -140 -142 -175 -142 -50 0 -66
8 -83 41 -33 64 -15 99 144 269 132 142 166 157 222 101z m108 -343 c28 -23
51 -45 51 -49 0 -16 -45 -39 -75 -39 -31 0 -105 51 -105 72 0 15 48 58 64 58
7 0 36 -19 65 -42z"/>
<path d="M2142 4064 c-28 -20 -28 -55 1 -82 28 -26 40 -27 72 -6 46 30 21 104
-35 104 -9 0 -26 -7 -38 -16z"/>
</g>
</svg>
